<svg style="position: absolute; width: 0; height: 0; overflow: hidden;" version="1.1" xmlns="http://www.w3.org/2000/svg" xmlns:xlink="http://www.w3.org/1999/xlink">
    <defs>
        <symbol id="icon-logo" viewBox="0 0 32 32">
            <title>logo</title>
            <path d="m482 0v38.679688c-49.300781 47.324218-112.347656 75.417968-180 80.484374v-14.164062c0-24.8125-20.1875-45-45-45s-45 20.1875-45 45v15h-32v-15c0-24.8125-20.1875-45-45-45s-45 20.1875-45 45v16.074219c-50.816406 7.304687-90 51.121093-90 103.925781 0 57.898438 47.101562 105 105 105h76v30c-4.046875 0-147.371094 0-151 0v90h257c57.898438 0 105-47.101562 105-105s-47.101562-105-105-105h-15v-30h7.722656c76.019532 0 147.601563 28.835938 202.277344 81.320312v38.679688h30v-330zm-422 420v-30h30v30zm182-315c0-8.269531 6.730469-15 15-15s15 6.730469 15 15v15h-30zm-107-15c8.269531 0 15 6.730469 15 15v15h-30v-15c0-8.269531 6.730469-15 15-15zm76 240h76c8.269531 0 15 6.730469 15 15s-6.730469 15-15 15h-76zm31-90h-92v-30h92zm-122 0h-15c-8.269531 0-15-6.730469-15-15s6.730469-15 15-15h15zm283.050781-35.46875c-39.296875-16.277344-80.792969-24.53125-123.328125-24.53125h-174.722656c-24.8125 0-45 20.1875-45 45s20.1875 45 45 45h182c41.355469 0 75 33.644531 75 75s-33.644531 75-75 75h-167v-30h167c24.8125 0 45-20.1875 45-45s-20.1875-45-45-45h-76c-11.941406 0-95.34375 0-106 0-41.355469 0-75-33.644531-75-75s33.644531-75 75-75h174.722656c42.535156 0 84.03125-8.253906 123.328125-24.53125 28.636719-11.863281 55.070313-27.578125 78.949219-46.859375v172.78125c-23.878906-19.28125-50.3125-34.996094-78.949219-46.859375zm0 0"/>
        </symbol>

    </defs>
</svg>
